# xmcd
#
# Track frame offsets: 
#        150
#        11683
#        45047
#        59110
#        84460
#        95754
#        130344
#        150688
#        170655
#        198078
#        213331
#
# Disc length: 3122 seconds
#
# Revision: 0
# Processed by: cddbd v1.5.2PL0 Copyright (c) Steve Scherf et al.
# Submitted via: ExactAudioCopy v0.95b4
#
DISCID=900c300b
DTITLE=John Dee Holeman - and The Waifs Band
DYEAR=2006
DGENRE=Blues
TTITLE0=John Henry
TTITLE1=Country Gal
TTITLE2=Mojo Hand
TTITLE3=Give Me Back My Wig
TTITLE4=I'm A Pilgrim
TTITLE5=Comin' Home To You
TTITLE6=Dust My Broom
TTITLE7=Little Queenie
TTITLE8=I Miss You Huggin'
TTITLE9=Looking Yonder Comin'
TTITLE10=Baby Please Don't Go
EXTD=
EXTT0=
EXTT1=
EXTT2=
EXTT3=
EXTT4=
EXTT5=
EXTT6=
EXTT7=
EXTT8=
EXTT9=
EXTT10=
PLAYORDER=
